<svg viewBox="1 1 511 511.99998" xmlns="http://www.w3.org/2000/svg"><path d="m512.5 256c0 141.386719-114.617188 256-256 256-141.386719 0-256-114.613281-256-256 0-141.382812 114.613281-256 256-256 141.382812 0 256 114.617188 256 256zm0 0" fill="#5a9ed1"/><path d="m471.21875 34.136719v361.316406c-6.34375 9.738281-13.320312 19.027344-20.898438 27.792969-46.945312 54.355468-116.359374 88.753906-193.816406 88.753906-77.457031 0-146.871094-34.398438-193.816406-88.753906-7.578125-8.765625-14.558594-18.054688-20.898438-27.792969v-361.316406c0-18.851563 15.285157-34.136719 34.136719-34.136719h361.15625c18.851563 0 34.136719 15.285156 34.136719 34.136719zm0 0" fill="#ededed"/><path d="m450.320312 34.136719v389.109375c-6.539062 7.574218-13.519531 14.765625-20.898437 21.523437-45.554687 41.753907-106.253906 67.230469-172.917969 67.230469-18.453125 0-36.457031-1.953125-53.800781-5.675781-7.453125-1.578125-14.765625-3.5-21.953125-5.726563-36.574219-11.304687-69.632812-30.59375-97.167969-55.828125-7.375-6.757812-14.355469-13.949219-20.894531-21.523437v-389.109375c0-7.304688 5.933594-13.238281 13.238281-13.238281h361.15625c7.304688 0 13.238281 5.933593 13.238281 13.238281zm0 0" fill="#fff"/><path d="m450.320312 34.136719v55.851562h-387.632812v-55.851562c0-7.304688 5.933594-13.238281 13.238281-13.238281h361.15625c7.304688 0 13.238281 5.933593 13.238281 13.238281zm0 0" fill="#583377"/><path d="m116.488281 55.441406c0 10.003906-8.109375 18.113282-18.113281 18.113282s-18.109375-8.109376-18.109375-18.113282c0-10 8.105469-18.109375 18.109375-18.109375s18.113281 8.109375 18.113281 18.109375zm0 0" fill="#fff"/><path d="m162.613281 55.441406c0 10.003906-8.109375 18.113282-18.109375 18.113282-10.003906 0-18.113281-8.109376-18.113281-18.113282 0-10 8.109375-18.109375 18.113281-18.109375 10 0 18.109375 8.109375 18.109375 18.109375zm0 0" fill="#fff"/><path d="m208.738281 55.441406c0 10.003906-8.109375 18.113282-18.109375 18.113282-10.003906 0-18.113281-8.109376-18.113281-18.113282 0-10 8.109375-18.109375 18.113281-18.109375 10 0 18.109375 8.109375 18.109375 18.109375zm0 0" fill="#fff"/><path d="m201.6875 167.636719h227.734375v80.738281h-227.734375zm0 0" fill="#ff4f9b"/><path d="m100.296875 216.089844c0 6.304687-5.109375 11.414062-11.414063 11.414062-6.300781 0-11.410156-5.109375-11.410156-11.414062 0-6.304688 5.109375-11.414063 11.410156-11.414063 6.304688 0 11.414063 5.109375 11.414063 11.414063zm0 0" fill="#e0a792"/><path d="m168.066406 216.089844c0 6.304687-5.113281 11.414062-11.414062 11.414062-6.304688 0-11.414063-5.109375-11.414063-11.414062 0-6.304688 5.109375-11.414063 11.414063-11.414063 6.300781 0 11.414062 5.109375 11.414062 11.414063zm0 0" fill="#e0a792"/><path d="m122.863281 257.480469c-18.765625 0-33.980469-15.210938-33.980469-33.976563v-43.621094h67.960938v43.621094c0 18.761719-15.214844 33.976563-33.980469 33.976563zm0 0" fill="#f9d8c7"/><path d="m127.722656 257.132812c-1.585937.230469-3.207031.347657-4.859375.347657-18.765625 0-33.980469-15.210938-33.980469-33.976563v-43.621094h9.722657v43.621094c0 17.113282 12.65625 31.273438 29.117187 33.628906zm0 0" fill="#e0a792"/><path d="m96.0625 187.257812-10.515625 5.292969v24.082031c5.808594 0 10.515625-4.707031 10.515625-10.515624zm0 0" fill="#442463"/><path d="m149.664062 168.730469h10.515626v47.902343c-5.808594 0-10.515626-4.707031-10.515626-10.515624zm0 0" fill="#583377"/><path d="m144.71875 192.550781h-59.171875c0-18.789062 15.230469-34.019531 34.019531-34.019531h59.175782c0 18.789062-15.234376 34.019531-34.023438 34.019531zm0 0" fill="#583377"/><path d="m135.519531 158.53125h-15.953125c-18.789062 0-34.019531 15.230469-34.019531 34.019531h15.953125c0-18.789062 15.230469-34.019531 34.019531-34.019531zm0 0" fill="#442463"/><path d="m114.589844 212.664062c0-3.507812-2.84375-6.351562-6.351563-6.351562-3.507812 0-6.351562 2.84375-6.351562 6.351562" fill="#384361"/><path d="m143.703125 212.664062c0-3.507812-2.84375-6.351562-6.351563-6.351562-3.507812 0-6.351562 2.84375-6.351562 6.351562" fill="#384361"/><path d="m128.253906 218.683594h-10.78125c-1.847656 0-3.34375 1.496094-3.34375 3.339844 0 1.847656 1.496094 3.34375 3.34375 3.34375h10.78125c1.847656 0 3.34375-1.496094 3.34375-3.34375 0-1.84375-1.496094-3.339844-3.34375-3.339844zm0 0" fill="#e0a792"/><g fill="#fff"><path d="m106.984375 228.894531c0 8.769531 7.109375 15.878907 15.878906 15.878907s15.878907-7.109376 15.878907-15.878907"/><path d="m243.070312 217.234375c.351563.425781.5625 1.273437.5625 2.050781 0 2.265625-2.261718 3.820313-4.3125 3.820313-.777343 0-1.910156-.140625-2.6875-1.34375l-4.597656-7.070313-4.667968 7.140625c-.636719 1.0625-1.484376 1.273438-2.476563 1.273438-1.695313 0-4.453125-1.34375-4.453125-3.679688 0-.917969.351562-1.695312.847656-2.261719l4.667969-6.648437-7.355469-2.121094c-1.628906-.355469-2.40625-1.769531-2.40625-3.609375s1.628906-3.890625 3.890625-3.890625c.210938 0 .566407 0 1.0625.214844l7.425781 2.402344-.355468-7.214844c.070312-2.332031 1.839844-3.394531 3.820312-3.394531 1.980469 0 3.679688 1.0625 3.75 3.394531l-.285156 7.359375 7.496094-2.546875c.355468-.144531.707031-.214844 1.0625-.214844 2.195312 0 3.679687 2.335938 3.679687 4.386719 0 1.414062-.707031 2.757812-2.40625 3.113281l-7.214843 1.695313zm0 0"/><path d="m284.863281 217.234375c.355469.425781.566407 1.273437.566407 2.050781 0 2.265625-2.261719 3.820313-4.316407 3.820313-.777343 0-1.90625-.140625-2.6875-1.34375l-4.59375-7.070313-4.667969 7.140625c-.636718 1.0625-1.484374 1.273438-2.476562 1.273438-1.695312 0-4.457031-1.34375-4.457031-3.679688 0-.917969.355469-1.695312.851562-2.261719l4.667969-6.648437-7.355469-2.121094c-1.628906-.355469-2.40625-1.769531-2.40625-3.609375s1.628907-3.890625 3.890625-3.890625c.210938 0 .566406 0 1.0625.214844l7.425782 2.402344-.355469-7.214844c.070312-2.332031 1.839843-3.394531 3.820312-3.394531s3.675781 1.0625 3.746094 3.394531l-.28125 7.359375 7.496094-2.546875c.355469-.144531.707031-.214844 1.0625-.214844 2.191406 0 3.675781 2.335938 3.675781 4.386719 0 1.414062-.707031 2.757812-2.402344 3.113281l-7.214844 1.695313zm0 0"/><path d="m326.660156 217.234375c.351563.425781.566406 1.273437.566406 2.050781 0 2.265625-2.265624 3.820313-4.316406 3.820313-.777344 0-1.910156-.140625-2.6875-1.34375l-4.59375-7.070313-4.671875 7.140625c-.636719 1.0625-1.484375 1.273438-2.472656 1.273438-1.699219 0-4.457031-1.34375-4.457031-3.679688 0-.917969.351562-1.695312.847656-2.261719l4.667969-6.648437-7.351563-2.121094c-1.628906-.355469-2.40625-1.769531-2.40625-3.609375s1.625-3.890625 3.890625-3.890625c.210938 0 .566407 0 1.058594.214844l7.429687 2.402344-.355468-7.214844c.070312-2.332031 1.839844-3.394531 3.820312-3.394531 1.976563 0 3.675782 1.0625 3.746094 3.394531l-.28125 7.359375 7.496094-2.546875c.351562-.144531.707031-.214844 1.0625-.214844 2.191406 0 3.675781 2.335938 3.675781 4.386719 0 1.414062-.707031 2.757812-2.402344 3.113281l-7.214843 1.695313zm0 0"/><path d="m368.457031 217.234375c.351563.425781.5625 1.273437.5625 2.050781 0 2.265625-2.261719 3.820313-4.3125 3.820313-.777343 0-1.910156-.140625-2.6875-1.34375l-4.597656-7.070313-4.667969 7.140625c-.636718 1.0625-1.484375 1.273438-2.476562 1.273438-1.695313 0-4.453125-1.34375-4.453125-3.679688 0-.917969.351562-1.695312.847656-2.261719l4.667969-6.648437-7.355469-2.121094c-1.625-.355469-2.402344-1.769531-2.402344-3.609375s1.625-3.890625 3.886719-3.890625c.214844 0 .566406 0 1.0625.214844l7.425781 2.402344-.351562-7.214844c.066406-2.332031 1.835937-3.394531 3.816406-3.394531s3.679687 1.0625 3.75 3.394531l-.285156 7.359375 7.5-2.546875c.351562-.144531.707031-.214844 1.058593-.214844 2.195313 0 3.679688 2.335938 3.679688 4.386719 0 1.414062-.707031 2.757812-2.40625 3.113281l-7.210938 1.695313zm0 0"/><path d="m410.25 217.234375c.355469.425781.566406 1.273437.566406 2.050781 0 2.265625-2.261718 3.820313-4.3125 3.820313-.777344 0-1.910156-.140625-2.6875-1.34375l-4.597656-7.070313-4.667969 7.140625c-.636719 1.0625-1.484375 1.273438-2.476562 1.273438-1.695313 0-4.453125-1.34375-4.453125-3.679688 0-.917969.351562-1.695312.847656-2.261719l4.667969-6.648437-7.355469-2.121094c-1.628906-.355469-2.40625-1.769531-2.40625-3.609375s1.628906-3.890625 3.890625-3.890625c.210937 0 .566406 0 1.0625.214844l7.425781 2.402344-.355468-7.214844c.070312-2.332031 1.839843-3.394531 3.820312-3.394531s3.679688 1.0625 3.746094 3.394531l-.28125 7.359375 7.496094-2.546875c.355468-.144531.707031-.214844 1.0625-.214844 2.191406 0 3.679687 2.335938 3.679687 4.386719 0 1.414062-.707031 2.757812-2.40625 3.113281l-7.214844 1.695313zm0 0"/></g><path d="m201.6875 290.101562h227.734375v80.742188h-227.734375zm0 0" fill="#ff4f9b"/><path d="m243.070312 339.703125c.351563.421875.5625 1.269531.5625 2.050781 0 2.261719-2.261718 3.816406-4.3125 3.816406-.777343 0-1.910156-.140624-2.6875-1.34375l-4.597656-7.070312-4.667968 7.140625c-.636719 1.0625-1.484376 1.273437-2.476563 1.273437-1.695313 0-4.453125-1.34375-4.453125-3.675781 0-.921875.351562-1.699219.847656-2.265625l4.667969-6.648437-7.355469-2.121094c-1.628906-.355469-2.40625-1.769531-2.40625-3.605469 0-1.839844 1.628906-3.890625 3.890625-3.890625.210938 0 .566407 0 1.0625.210938l7.425781 2.402343-.355468-7.210937c.070312-2.335937 1.839844-3.394531 3.820312-3.394531 1.980469 0 3.679688 1.058594 3.75 3.394531l-.285156 7.355469 7.496094-2.546875c.355468-.140625.707031-.210938 1.0625-.210938 2.195312 0 3.679687 2.332031 3.679687 4.382813 0 1.414062-.707031 2.757812-2.40625 3.113281l-7.214843 1.699219zm0 0" fill="#fff"/><path d="m284.863281 339.703125c.355469.421875.566407 1.269531.566407 2.050781 0 2.261719-2.261719 3.816406-4.316407 3.816406-.777343 0-1.90625-.140624-2.6875-1.34375l-4.59375-7.070312-4.667969 7.140625c-.636718 1.0625-1.484374 1.273437-2.476562 1.273437-1.695312 0-4.457031-1.34375-4.457031-3.675781 0-.921875.355469-1.699219.851562-2.265625l4.667969-6.648437-7.355469-2.121094c-1.628906-.355469-2.40625-1.769531-2.40625-3.605469 0-1.839844 1.628907-3.890625 3.890625-3.890625.210938 0 .566406 0 1.0625.210938l7.425782 2.402343-.355469-7.210937c.070312-2.335937 1.839843-3.394531 3.820312-3.394531s3.675781 1.058594 3.746094 3.394531l-.28125 7.355469 7.496094-2.546875c.355469-.140625.707031-.210938 1.0625-.210938 2.191406 0 3.675781 2.332031 3.675781 4.382813 0 1.414062-.707031 2.757812-2.402344 3.113281l-7.214844 1.699219zm0 0" fill="#fff"/><path d="m326.660156 339.703125c.351563.421875.566406 1.269531.566406 2.050781 0 2.261719-2.265624 3.816406-4.316406 3.816406-.777344 0-1.910156-.140624-2.6875-1.34375l-4.59375-7.070312-4.671875 7.140625c-.636719 1.0625-1.484375 1.273437-2.472656 1.273437-1.699219 0-4.457031-1.34375-4.457031-3.675781 0-.921875.351562-1.699219.847656-2.265625l4.667969-6.648437-7.351563-2.121094c-1.628906-.355469-2.40625-1.769531-2.40625-3.605469 0-1.839844 1.625-3.890625 3.890625-3.890625.210938 0 .566407 0 1.058594.210938l7.429687 2.402343-.355468-7.210937c.070312-2.335937 1.839844-3.394531 3.820312-3.394531 1.976563 0 3.675782 1.058594 3.746094 3.394531l-.28125 7.355469 7.496094-2.546875c.351562-.140625.707031-.210938 1.0625-.210938 2.191406 0 3.675781 2.332031 3.675781 4.382813 0 1.414062-.707031 2.757812-2.402344 3.113281l-7.214843 1.699219zm0 0" fill="#fff"/><path d="m368.457031 339.703125c.351563.421875.5625 1.269531.5625 2.050781 0 2.261719-2.261719 3.816406-4.3125 3.816406-.777343 0-1.910156-.140624-2.6875-1.34375l-4.597656-7.070312-4.667969 7.140625c-.636718 1.0625-1.484375 1.273437-2.476562 1.273437-1.695313 0-4.453125-1.34375-4.453125-3.675781 0-.921875.351562-1.699219.847656-2.265625l4.667969-6.648437-7.355469-2.121094c-1.625-.355469-2.402344-1.769531-2.402344-3.605469 0-1.839844 1.625-3.890625 3.886719-3.890625.214844 0 .566406 0 1.0625.210938l7.425781 2.402343-.351562-7.210937c.066406-2.335937 1.835937-3.394531 3.816406-3.394531s3.679687 1.058594 3.75 3.394531l-.285156 7.355469 7.5-2.546875c.351562-.140625.707031-.210938 1.058593-.210938 2.195313 0 3.679688 2.332031 3.679688 4.382813 0 1.414062-.707031 2.757812-2.40625 3.113281l-7.210938 1.699219zm0 0" fill="#fff"/><path d="m410.25 339.703125c.355469.421875.566406 1.269531.566406 2.050781 0 2.261719-2.261718 3.816406-4.3125 3.816406-.777344 0-1.910156-.140624-2.6875-1.34375l-4.597656-7.070312-4.667969 7.140625c-.636719 1.0625-1.484375 1.273437-2.476562 1.273437-1.695313 0-4.453125-1.34375-4.453125-3.675781 0-.921875.351562-1.699219.847656-2.265625l4.667969-6.648437-7.355469-2.121094c-1.628906-.355469-2.40625-1.769531-2.40625-3.605469 0-1.839844 1.628906-3.890625 3.890625-3.890625.210937 0 .566406 0 1.0625.210938l7.425781 2.402343-.355468-7.210937c.070312-2.335937 1.839843-3.394531 3.820312-3.394531s3.679688 1.058594 3.746094 3.394531l-.28125 7.355469 7.496094-2.546875c.355468-.140625.707031-.210938 1.0625-.210938 2.191406 0 3.679687 2.332031 3.679687 4.382813 0 1.414062-.707031 2.757812-2.40625 3.113281l-7.214844 1.699219zm0 0" fill="#fff"/><path d="m159.445312 343.546875h-62.679687v-31.546875c0-17.277344 14.058594-31.335938 31.339844-31.335938 17.277343 0 31.335937 14.058594 31.335937 31.335938v31.546875zm-50.570312-12.109375h38.460938v-19.4375c0-10.601562-8.628907-19.230469-19.230469-19.230469-10.605469 0-19.230469 8.628907-19.230469 19.230469zm0 0" fill="#583377"/><path d="m90.710938 329.507812h74.789062v50.773438h-74.789062zm0 0" fill="#fcda42"/></svg>